<svg xmlns="http://www.w3.org/2000/svg" viewBox="0 0 3 2" role="img" aria-label="Flag of South Korea">
  <rect width="3" height="2" fill="#fff" />
  <g transform="translate(1.5 1)">
    <path
      fill="#cd2e3a"
      d="M0 0.72a0.72 0.72 0 1 1 0-1.44 0.36 0.36 0 0 1 0 0.72 0.36 0.36 0 0 0 0 0.72"
    />
    <path
      fill="#0047a0"
      d="M0-0.72a0.72 0.72 0 1 1 0 1.44 0.36 0.36 0 0 1 0-0.72 0.36 0.36 0 0 0 0-0.72"
    />
  </g>
  <g fill="#000">
    <g transform="translate(0.6 0.6) rotate(-30)">
      <rect x="-0.48" y="-0.06" width="0.96" height="0.12" rx="0.06" />
      <rect x="-0.48" y="0.18" width="0.96" height="0.12" rx="0.06" />
      <rect x="-0.48" y="0.42" width="0.96" height="0.12" rx="0.06" />
    </g>
    <g transform="translate(2.4 0.6) rotate(30)">
      <rect x="-0.48" y="-0.06" width="0.96" height="0.12" rx="0.06" />
      <rect x="-0.48" y="0.18" width="0.96" height="0.12" rx="0.06" />
      <rect x="-0.48" y="0.42" width="0.96" height="0.12" rx="0.06" />
      <rect x="-0.18" y="0.18" width="0.36" height="0.12" rx="0.06" fill="#fff" />
      <rect x="-0.18" y="0.42" width="0.36" height="0.12" rx="0.06" fill="#fff" />
    </g>
    <g transform="translate(0.6 1.4) rotate(30)">
      <rect x="-0.48" y="-0.06" width="0.96" height="0.12" rx="0.06" />
      <rect x="-0.18" y="-0.06" width="0.36" height="0.12" rx="0.06" fill="#fff" />
      <rect x="-0.48" y="0.18" width="0.96" height="0.12" rx="0.06" />
      <rect x="-0.18" y="0.18" width="0.36" height="0.12" rx="0.06" fill="#fff" />
      <rect x="-0.48" y="0.42" width="0.96" height="0.12" rx="0.06" />
    </g>
    <g transform="translate(2.4 1.4) rotate(-30)">
      <rect x="-0.48" y="-0.06" width="0.96" height="0.12" rx="0.06" />
      <rect x="-0.48" y="0.18" width="0.96" height="0.12" rx="0.06" />
      <rect x="-0.48" y="0.42" width="0.96" height="0.12" rx="0.06" />
      <rect x="-0.18" y="-0.06" width="0.36" height="0.12" rx="0.06" fill="#fff" />
      <rect x="-0.18" y="0.42" width="0.36" height="0.12" rx="0.06" fill="#fff" />
    </g>
  </g>
</svg>
