<svg xmlns="http://www.w3.org/2000/svg" viewBox="0 0 3 2" role="img" aria-label="Flag of South Korea">
  <path fill="#fff" d="M0 0h3v2H0z" />
  <g transform="translate(1.5 1)">
    <circle r="0.6" fill="#cd2e3a" />
    <path
      d="M0.6 0A0.6 0.6 0 1 1-0.6 0C-0.6-0.331-0.331-0.6 0-0.6S0.6-0.331 0.6 0z"
      fill="#0047a0"
    />
    <path
      d="M0.6 0A0.6 0.6 0 0 0 0-0.6 0.3 0.3 0 0 0 0 0 0.3 0.3 0 0 1 0.6 0z"
      fill="#cd2e3a"
    />
    <path
      d="M-0.6 0A0.6 0.6 0 0 1 0 0.6 0.3 0.3 0 0 1 0 0 0.3 0.3 0 0 0-0.6 0z"
      fill="#0047a0"
    />
  </g>
  <g fill="#000">
    <g transform="translate(0.5 0.5) rotate(-30)">
      <rect width="0.9" height="0.12" rx="0.06" y="-0.06" x="-0.45" />
      <rect width="0.9" height="0.12" rx="0.06" y="0.18" x="-0.45" />
      <rect width="0.9" height="0.12" rx="0.06" y="0.42" x="-0.45" />
    </g>
    <g transform="translate(2.5 0.5) rotate(30)">
      <rect width="0.9" height="0.12" rx="0.06" y="-0.06" x="-0.45" />
      <rect width="0.9" height="0.12" rx="0.06" y="0.18" x="-0.45" />
      <rect width="0.9" height="0.12" rx="0.06" y="0.42" x="-0.45" />
      <rect width="0.36" height="0.12" rx="0.06" y="0.18" x="-0.18" fill="#fff" />
      <rect width="0.36" height="0.12" rx="0.06" y="0.42" x="-0.18" fill="#fff" />
    </g>
    <g transform="translate(0.5 1.5) rotate(30)">
      <rect width="0.9" height="0.12" rx="0.06" y="-0.06" x="-0.45" />
      <rect width="0.36" height="0.12" rx="0.06" y="-0.06" x="-0.18" fill="#fff" />
      <rect width="0.9" height="0.12" rx="0.06" y="0.18" x="-0.45" />
      <rect width="0.36" height="0.12" rx="0.06" y="0.18" x="-0.18" fill="#fff" />
      <rect width="0.9" height="0.12" rx="0.06" y="0.42" x="-0.45" />
    </g>
    <g transform="translate(2.5 1.5) rotate(-30)">
      <rect width="0.9" height="0.12" rx="0.06" y="-0.06" x="-0.45" />
      <rect width="0.9" height="0.12" rx="0.06" y="0.18" x="-0.45" />
      <rect width="0.9" height="0.12" rx="0.06" y="0.42" x="-0.45" />
      <rect width="0.36" height="0.12" rx="0.06" y="-0.06" x="-0.18" fill="#fff" />
      <rect width="0.36" height="0.12" rx="0.06" y="0.42" x="-0.18" fill="#fff" />
    </g>
  </g>
</svg>
