<svg width="48" height="32" viewBox="0 0 48 32" fill="none" xmlns="http://www.w3.org/2000/svg">
  <rect width="48" height="32" rx="4" fill="#FFFFFF" />
  <g fill="#101010">
    <g>
      <rect x="6" y="6" width="10" height="2" rx="1" />
      <rect x="6" y="10" width="10" height="2" rx="1" />
      <rect x="6" y="14" width="10" height="2" rx="1" />
    </g>
    <g>
      <rect x="32" y="6" width="10" height="2" rx="1" />
      <rect x="32" y="10" width="4.2" height="2" rx="1" />
      <rect x="37.8" y="10" width="4.2" height="2" rx="1" />
      <rect x="32" y="14" width="10" height="2" rx="1" />
    </g>
    <g>
      <rect x="6" y="18" width="4.2" height="2" rx="1" />
      <rect x="11.8" y="18" width="4.2" height="2" rx="1" />
      <rect x="6" y="22" width="10" height="2" rx="1" />
      <rect x="6" y="26" width="4.2" height="2" rx="1" />
      <rect x="11.8" y="26" width="4.2" height="2" rx="1" />
    </g>
    <g>
      <rect x="32" y="18" width="4.2" height="2" rx="1" />
      <rect x="37.8" y="18" width="4.2" height="2" rx="1" />
      <rect x="32" y="22" width="4.2" height="2" rx="1" />
      <rect x="37.8" y="22" width="4.2" height="2" rx="1" />
      <rect x="32" y="26" width="4.2" height="2" rx="1" />
      <rect x="37.8" y="26" width="4.2" height="2" rx="1" />
    </g>
  </g>
  <path
    fill="#CD2E3A"
    d="M24 8c-4.97 0-9 4.03-9 9 0 1.76.47 3.41 1.3 4.82A5.3 5.3 0 0 1 24 17.25c2.93 0 5.3 2.37 5.3 5.3 0 1.31-.48 2.51-1.27 3.43A9 9 0 0 0 33 17c0-4.97-4.03-9-9-9Z"
  />
  <path
    fill="#0047A0"
    d="M24 26c4.97 0 9-4.03 9-9 0-1.76-.47-3.41-1.3-4.82A5.3 5.3 0 0 1 24 16.75c-2.93 0-5.3-2.37-5.3-5.3 0-1.31.48-2.51 1.27-3.43A9 9 0 0 0 15 15c0 4.97 4.03 9 9 9Z"
  />
  <circle cx="24" cy="13" r="3.1" fill="#0047A0" />
  <circle cx="24" cy="21" r="3.1" fill="#CD2E3A" />
</svg>
