<svg width="48" height="32" viewBox="0 0 48 32" fill="none" xmlns="http://www.w3.org/2000/svg">
  <rect width="48" height="32" rx="4" fill="#FFFFFF" />
  <g fill="#0C0C0C">
    <g transform="rotate(-45 10 8)">
      <rect x="4" y="3" width="12" height="1.7" rx="0.85" />
      <rect x="4" y="7" width="12" height="1.7" rx="0.85" />
      <rect x="4" y="11" width="12" height="1.7" rx="0.85" />
    </g>
    <g transform="rotate(45 38 8)">
      <rect x="32" y="3" width="12" height="1.7" rx="0.85" />
      <rect x="32" y="11" width="12" height="1.7" rx="0.85" />
      <rect x="32" y="7" width="5.2" height="1.7" rx="0.85" />
      <rect x="38.8" y="7" width="5.2" height="1.7" rx="0.85" />
    </g>
    <g transform="rotate(45 38 24)">
      <rect x="32" y="19" width="12" height="1.7" rx="0.85" />
      <rect x="32" y="23" width="5.2" height="1.7" rx="0.85" />
      <rect x="38.8" y="23" width="5.2" height="1.7" rx="0.85" />
      <rect x="32" y="27" width="12" height="1.7" rx="0.85" />
    </g>
    <g transform="rotate(-45 10 24)">
      <rect x="4" y="19" width="5.2" height="1.7" rx="0.85" />
      <rect x="10.8" y="19" width="5.2" height="1.7" rx="0.85" />
      <rect x="4" y="23" width="12" height="1.7" rx="0.85" />
      <rect x="4" y="27" width="5.2" height="1.7" rx="0.85" />
      <rect x="10.8" y="27" width="5.2" height="1.7" rx="0.85" />
    </g>
  </g>
  <path
    fill="#CD2E3A"
    d="M24 8.2c-4.02 0-7.28 3.26-7.28 7.28 0 1.94.78 3.7 2.05 4.96a4.68 4.68 0 0 1 4.73-4.35 4.55 4.55 0 0 1 4.55 4.55c0 1.36-.6 2.6-1.58 3.45A7.28 7.28 0 1 0 24 8.2Z"
  />
  <path
    fill="#0047A0"
    d="M24 23.8c4.02 0 7.28-3.26 7.28-7.28 0-1.94-.78-3.7-2.05-4.96a4.68 4.68 0 0 1-4.73 4.35 4.55 4.55 0 0 1-4.55-4.55c0-1.36.6-2.6 1.58-3.45A7.28 7.28 0 1 0 24 23.8Z"
  />
</svg>
