<svg width="48" height="32" viewBox="0 0 48 32" fill="none" xmlns="http://www.w3.org/2000/svg">
  <rect width="48" height="32" rx="4" fill="#FFFFFF"/>
  <path d="M24 7.5c4.69 0 8.5 3.81 8.5 8.5s-3.81 8.5-8.5 8.5c-3.32 0-6.2-1.82-7.68-4.52a5.5 5.5 0 0 0 7.18 2.52c2.97-1.36 4.25-4.87 2.89-7.84-1.06-2.32-3.38-3.66-5.89-3.66-1.7 0-3.3.67-4.49 1.86C17.25 10.66 20.37 7.5 24 7.5Z" fill="#CD2E3A"/>
  <path d="M24 24.5c-4.69 0-8.5-3.81-8.5-8.5s3.81-8.5 8.5-8.5c3.32 0 6.2 1.82 7.68 4.52a5.5 5.5 0 0 0-7.18-2.52c-2.97 1.36-4.25 4.87-2.89 7.84 1.06 2.32 3.38 3.66 5.89 3.66 1.7 0 3.3-.67 4.49-1.86-.74 3.09-3.86 6.24-7.49 6.24Z" fill="#0047A0"/>
</svg>
